<svg xmlns="http://www.w3.org/2000/svg" width="2000" height="297">
    <svg viewBox="0 0 396 59" data-background-color="#ffffff" height="297" width="2000" xmlns="http://www.w3.org/2000/svg" xmlns:xlink="http://www.w3.org/1999/xlink" transform="translate(-1.212 -.783)">
        <svg viewBox="0 0 395.52 58.689" height="58.689" width="395.52" transform="translate(.24 .155)">
            <svg viewBox="0 0 395.52 58.689" height="58.689" width="395.52">
                <svg viewBox="0 0 395.52 58.689" height="58.689" width="395.52">
                    <svg viewBox="0 0 395.52 58.689" height="58.689" width="395.52">
                        <svg viewBox="0 0 395.52 58.689" height="58.689" width="395.52">
                            <svg viewBox="0 0 395.52 58.689" height="58.689" width="395.52">
                                <svg width="395.52" viewBox="2.05 -35.55 242.94 36.05" height="58.689" data-palette-color="#ff851b">
                                    <path d="M20-34.55q-7.75 0-7.75 14.95v3.95q0 7.1 2.05 11.12Q16.35-.5 20.35-.5q5.5 0 10.1-10.7h.9L31-.05h-.55q-.3-.55-.55-.78-.25-.22-.72-.22-.48 0-3.63.77-3.15.78-6.4.78Q11 .5 6.53-3.9 2.05-8.3 2.05-17.13q0-8.82 4.68-13.62 4.67-4.8 12.57-4.8 3.05 0 5.98.78 2.92.77 3.42.77t.75-.23q.25-.22.55-.77h.55l.4 10.85h-.9q-2.25-5.05-4.62-7.73-2.38-2.67-5.43-2.67Zm30.65 24.7v-4.25q0-4.85-.53-7.08-.52-2.22-2.42-2.22-1.1 0-1.78.62-.67.63-.97 2.08-.45 2.25-.45 6.85v3.9q0 5.45.32 6.55.33 1.1.68 1.8.55 1.2 2.15 1.2 1.95 0 2.55-2.25.45-1.6.45-7.2ZM47.55.5Q41.3.5 38.1-2.7q-3.2-3.2-3.2-9.18 0-5.97 3.42-9.2 3.43-3.22 9.63-3.22 6.2 0 9.25 2.97 3.05 2.98 3.05 9.08Q60.25.5 47.55.5Zm14.1-23.4v-.9H73.7v4.6q1.65-5.1 7.27-5.1 5.63 0 6.83 5.4 1.75-5.4 7.35-5.4 7.35 0 7.35 8.35V-.9h2.8V0H91.45v-.9h1.75v-16.25q0-3.8-.65-4.45-.3-.3-.8-.3-1.45 0-2.55 1.95Q88.1-18 88.1-15V-.9h1.8V0H77.05v-.9h1.75v-16.25q0-3.8-.65-4.45-.3-.3-.8-.3-1.4 0-2.53 2.12-1.12 2.13-1.12 5.08V-.9h1.8V0H61.65v-.9h2.75v-22h-2.75Zm44.39 0v-.9h12.05v4.6q1.65-5.1 7.28-5.1 5.62 0 6.82 5.4 1.75-5.4 7.35-5.4 7.35 0 7.35 8.35V-.9h2.8V0h-13.85v-.9h1.75v-16.25q0-3.8-.65-4.45-.3-.3-.8-.3-1.45 0-2.55 1.95-1.1 1.95-1.1 4.95V-.9h1.8V0h-12.85v-.9h1.75v-16.25q0-3.8-.65-4.45-.3-.3-.8-.3-1.4 0-2.52 2.12-1.13 2.13-1.13 5.08V-.9h1.8V0h-13.85v-.9h2.75v-22h-2.75Zm72.65 22V0h-11.4l-.55-3.65q-.8 2-2.37 3.07Q162.79.5 159.69.5q-7.75 0-7.75-8.35V-22.9h-2.8v-.9h12.1v17.15q0 3 .43 3.95.42.95 1.7.95 1.27 0 2.27-1.55t1-4.3v-15.3h-2.3v-.9h11.6V-.9h2.75Zm1.1-22v-.9h12.05v4.6q.8-2.3 2.45-3.7 1.65-1.4 5-1.4 7.75 0 7.75 8.35V-.9h2.8V0h-14.15v-.9h2.05v-16.25q0-3-.4-3.88-.4-.87-1.45-.87-1.6 0-2.83 2.1-1.22 2.1-1.22 5.1V-.9h2.15V0h-14.2v-.9h2.75v-22h-2.75Zm65.2 21.95V0h-17.1v-.95h3.3l-7.45-13.2-7.95 13.2h5.3V0h-10.35v-.95h3.35l8.75-14.7L212.39-34h-2.7v-1h16.85v1h-3.4l6.75 12.1 7.55-12.1h-5.2v-1h10.25v1h-3.3l-8.45 13.5L242.09-.95h2.9Z" fill="#ff851b" class="wordmark-text-0" data-fill-palette-color="primary"/>
                                </svg>
                            </svg>
                        </svg>
                    </svg>
                </svg>
            </svg>
        </svg>
    </svg>
</svg>
