<svg xmlns="http://www.w3.org/2000/svg" version="1.1" xmlns:xlink="http://www.w3.org/1999/xlink" xmlns:svgjs="http://svgjs.dev/svgjs" width="2000" height="297" viewBox="0 0 2000 297"><g transform="matrix(1,0,0,1,-1.2121212121212466,-0.7827354446230572)"><svg viewBox="0 0 396 59" data-background-color="#ffffff" preserveAspectRatio="xMidYMid meet" height="297" width="2000" xmlns="http://www.w3.org/2000/svg" xmlns:xlink="http://www.w3.org/1999/xlink"><g id="tight-bounds" transform="matrix(1,0,0,1,0.2400000000000091,0.1554928997736056)"><svg viewBox="0 0 395.52 58.689014200452775" height="58.689014200452775" width="395.52"><g><svg viewBox="0 0 395.52 58.689014200452775" height="58.689014200452775" width="395.52"><g><svg viewBox="0 0 395.52 58.689014200452775" height="58.689014200452775" width="395.52"><g><svg viewBox="0 0 395.52 58.689014200452775" height="58.689014200452775" width="395.52"><g id="textblocktransform"><svg viewBox="0 0 395.52 58.689014200452775" height="58.689014200452775" width="395.52" id="textblock"><g><svg viewBox="0 0 395.52 58.689014200452775" height="58.689014200452775" width="395.52"><g transform="matrix(1,0,0,1,0,0)"><svg width="395.52" viewBox="2.05 -35.55 242.94 36.05" height="58.689014200452775" data-palette-color="#ff851b"><path d="M20-34.55L20-34.55Q12.25-34.55 12.25-19.6L12.25-19.6 12.25-15.65Q12.25-8.55 14.3-4.53 16.35-0.5 20.35-0.5L20.35-0.5Q25.85-0.5 30.45-11.2L30.45-11.2 31.35-11.2 31-0.05 30.45-0.05Q30.15-0.6 29.9-0.83 29.65-1.05 29.18-1.05 28.7-1.05 25.55-0.28 22.4 0.5 19.15 0.5L19.15 0.5Q11 0.5 6.53-3.9 2.05-8.3 2.05-17.13 2.05-25.95 6.73-30.75 11.4-35.55 19.3-35.55L19.3-35.55Q22.35-35.55 25.28-34.77 28.2-34 28.7-34 29.2-34 29.45-34.23 29.7-34.45 30-35L30-35 30.55-35 30.95-24.15 30.05-24.15Q27.8-29.2 25.43-31.88 23.05-34.55 20-34.55ZM50.65-9.85L50.65-9.85 50.65-14.1Q50.65-18.95 50.12-21.18 49.6-23.4 47.7-23.4L47.7-23.4Q46.6-23.4 45.92-22.78 45.25-22.15 44.95-20.7L44.95-20.7Q44.5-18.45 44.5-13.85L44.5-13.85 44.5-9.95Q44.5-4.5 44.82-3.4 45.15-2.3 45.5-1.6L45.5-1.6Q46.05-0.4 47.65-0.4L47.65-0.4Q49.6-0.4 50.2-2.65L50.2-2.65Q50.65-4.25 50.65-9.85ZM47.55 0.5Q41.3 0.5 38.1-2.7 34.9-5.9 34.9-11.88 34.9-17.85 38.32-21.08 41.75-24.3 47.95-24.3 54.15-24.3 57.2-21.33 60.25-18.35 60.25-12.25L60.25-12.25Q60.25 0.5 47.55 0.5L47.55 0.5ZM61.65-22.9L61.65-23.8 73.7-23.8 73.7-19.2Q75.35-24.3 80.97-24.3 86.6-24.3 87.8-18.9L87.8-18.9Q89.55-24.3 95.15-24.3L95.15-24.3Q102.5-24.3 102.5-15.95L102.5-15.95 102.5-0.9 105.3-0.9 105.3 0 91.45 0 91.45-0.9 93.2-0.9 93.2-17.15Q93.2-20.95 92.55-21.6L92.55-21.6Q92.25-21.9 91.75-21.9L91.75-21.9Q90.3-21.9 89.2-19.95 88.1-18 88.1-15L88.1-15 88.1-0.9 89.9-0.9 89.9 0 77.05 0 77.05-0.9 78.8-0.9 78.8-17.15Q78.8-20.95 78.15-21.6L78.15-21.6Q77.85-21.9 77.35-21.9L77.35-21.9Q75.95-21.9 74.82-19.78 73.7-17.65 73.7-14.7L73.7-14.7 73.7-0.9 75.5-0.9 75.5 0 61.65 0 61.65-0.9 64.4-0.9 64.4-22.9 61.65-22.9ZM106.04-22.9L106.04-23.8 118.09-23.8 118.09-19.2Q119.74-24.3 125.37-24.3 130.99-24.3 132.19-18.9L132.19-18.9Q133.94-24.3 139.54-24.3L139.54-24.3Q146.89-24.3 146.89-15.95L146.89-15.95 146.89-0.9 149.69-0.9 149.69 0 135.84 0 135.84-0.9 137.59-0.9 137.59-17.15Q137.59-20.95 136.94-21.6L136.94-21.6Q136.64-21.9 136.14-21.9L136.14-21.9Q134.69-21.9 133.59-19.95 132.49-18 132.49-15L132.49-15 132.49-0.9 134.29-0.9 134.29 0 121.44 0 121.44-0.9 123.19-0.9 123.19-17.15Q123.19-20.95 122.54-21.6L122.54-21.6Q122.24-21.9 121.74-21.9L121.74-21.9Q120.34-21.9 119.22-19.78 118.09-17.65 118.09-14.7L118.09-14.7 118.09-0.9 119.89-0.9 119.89 0 106.04 0 106.04-0.9 108.79-0.9 108.79-22.9 106.04-22.9ZM178.69-0.9L178.69 0 167.29 0 166.74-3.65Q165.94-1.65 164.37-0.58 162.79 0.5 159.69 0.5L159.69 0.5Q151.94 0.5 151.94-7.85L151.94-7.85 151.94-22.9 149.14-22.9 149.14-23.8 161.24-23.8 161.24-6.65Q161.24-3.65 161.67-2.7 162.09-1.75 163.37-1.75 164.64-1.75 165.64-3.3 166.64-4.85 166.64-7.6L166.64-7.6 166.64-22.9 164.34-22.9 164.34-23.8 175.94-23.8 175.94-0.9 178.69-0.9ZM179.79-22.9L179.79-23.8 191.84-23.8 191.84-19.2Q192.64-21.5 194.29-22.9 195.94-24.3 199.29-24.3L199.29-24.3Q207.04-24.3 207.04-15.95L207.04-15.95 207.04-0.9 209.84-0.9 209.84 0 195.69 0 195.69-0.9 197.74-0.9 197.74-17.15Q197.74-20.15 197.34-21.03 196.94-21.9 195.89-21.9L195.89-21.9Q194.29-21.9 193.06-19.8 191.84-17.7 191.84-14.7L191.84-14.7 191.84-0.9 193.99-0.9 193.99 0 179.79 0 179.79-0.9 182.54-0.9 182.54-22.9 179.79-22.9ZM244.99-0.95L244.99 0 227.89 0 227.89-0.95 231.19-0.95 223.74-14.15 215.79-0.95 221.09-0.95 221.09 0 210.74 0 210.74-0.95 214.09-0.95 222.84-15.65 212.39-34 209.69-34 209.69-35 226.54-35 226.54-34 223.14-34 229.89-21.9 237.44-34 232.24-34 232.24-35 242.49-35 242.49-34 239.19-34 230.74-20.5 242.09-0.95 244.99-0.95Z" opacity="1" transform="matrix(1,0,0,1,0,0)" fill="#ff851b" class="wordmark-text-0" data-fill-palette-color="primary" id="text-0"></path></svg></g></svg></g></svg></g></svg></g></svg></g></svg></g><defs></defs></svg><rect width="395.52" height="58.689014200452775" fill="none" stroke="none" visibility="hidden"></rect></g></svg></g></svg>